<svg xmlns="http://www.w3.org/2000/svg" width="1920" height="1080">
<rect width="100%" height="100%" fill="white"/>
<rect x="0" y="0" width="1920" height="120" fill="#0F4C81"/>
<text x="960" y="70" font-size="42" fill="white" text-anchor="middle" font-family="Arial">Terrain Traversability Segmentation for Autonomous Ground Robots</text>
<g font-family="Arial" font-size="24">
<rect x="80" y="350" width="220" height="100" rx="10" fill="#F5F7FA" stroke="#0F4C81" stroke-width="2"/>
<text x="190" y="405" text-anchor="middle">ZED2 Camera</text>
<rect x="380" y="350" width="220" height="100" rx="10" fill="#F5F7FA" stroke="#0F4C81" stroke-width="2"/>
<text x="490" y="405" text-anchor="middle">YOLO11m-Seg</text>
<rect x="680" y="350" width="260" height="100" rx="10" fill="#F5F7FA" stroke="#0F4C81" stroke-width="2"/>
<text x="810" y="405" text-anchor="middle">Segmented Output</text>
<rect x="1020" y="330" width="320" height="140" rx="10" fill="#F5F7FA" stroke="#0F4C81" stroke-width="2"/>
<text x="1180" y="390" text-anchor="middle">Confidence Tensor</text>
<text x="1180" y="425" text-anchor="middle" font-size="18">(Traversability Information)</text>
<rect x="1420" y="350" width="220" height="100" rx="10" fill="#F5F7FA" stroke="#0F4C81" stroke-width="2"/>
<text x="1530" y="405" text-anchor="middle">TensorRT FP16</text>
<rect x="1720" y="350" width="160" height="100" rx="10" fill="#F5F7FA" stroke="#0F4C81" stroke-width="2"/>
<text x="1800" y="405" text-anchor="middle">AGX Orin</text>
</g>
<g stroke="#2D3748" stroke-width="3">
<line x1="300" y1="400" x2="380" y2="400"/><line x1="600" y1="400" x2="680" y2="400"/><line x1="940" y1="400" x2="1020" y2="400"/><line x1="1340" y1="400" x2="1420" y2="400"/><line x1="1640" y1="400" x2="1720" y2="400"/>
</g>
<text x="960" y="850" text-anchor="middle" font-size="30" fill="#2D3748">19 Terrain Classes • Day &amp; Night • Smoke Aware • Real-Time Deployment • 15 Hz Navigation Runtime</text>
</svg>