<svg xmlns="http://www.w3.org/2000/svg" width="1920" height="1080"><rect width="100%" height="100%" fill="white"/><text x="960" y="90" text-anchor="middle" font-size="44" font-family="Arial" fill="#0F4C81">Dataset Pipeline</text><rect x="710" y="180" width="500" height="70" rx="10" fill="#F5F7FA" stroke="#0F4C81" stroke-width="2"/><text x="960" y="225" text-anchor="middle" font-size="28" font-family="Arial">Data Collection</text><line x1="960" y1="250" x2="960" y2="300" stroke="#2D3748" stroke-width="3"/><rect x="710" y="300" width="500" height="70" rx="10" fill="#F5F7FA" stroke="#0F4C81" stroke-width="2"/><text x="960" y="345" text-anchor="middle" font-size="28" font-family="Arial">Annotation</text><line x1="960" y1="370" x2="960" y2="420" stroke="#2D3748" stroke-width="3"/><rect x="710" y="420" width="500" height="70" rx="10" fill="#F5F7FA" stroke="#0F4C81" stroke-width="2"/><text x="960" y="465" text-anchor="middle" font-size="28" font-family="Arial">Quality Review</text><line x1="960" y1="490" x2="960" y2="540" stroke="#2D3748" stroke-width="3"/><rect x="710" y="540" width="500" height="70" rx="10" fill="#F5F7FA" stroke="#0F4C81" stroke-width="2"/><text x="960" y="585" text-anchor="middle" font-size="28" font-family="Arial">Dataset Audit</text><line x1="960" y1="610" x2="960" y2="660" stroke="#2D3748" stroke-width="3"/><rect x="710" y="660" width="500" height="70" rx="10" fill="#F5F7FA" stroke="#0F4C81" stroke-width="2"/><text x="960" y="705" text-anchor="middle" font-size="28" font-family="Arial">Stratified Split</text><line x1="960" y1="730" x2="960" y2="780" stroke="#2D3748" stroke-width="3"/><rect x="710" y="780" width="500" height="70" rx="10" fill="#F5F7FA" stroke="#0F4C81" stroke-width="2"/><text x="960" y="825" text-anchor="middle" font-size="28" font-family="Arial">Training Dataset</text></svg>