<svg xmlns="http://www.w3.org/2000/svg" width="1920" height="1080"><rect width="100%" height="100%" fill="white"/><text x="960" y="90" text-anchor="middle" font-size="44" font-family="Arial" fill="#0F4C81">System Architecture</text>
<g font-family="Arial" font-size="28">
<rect x="710" y="180" width="500" height="80" rx="10" fill="#F5F7FA" stroke="#0F4C81" stroke-width="2"/><text x="960" y="230" text-anchor="middle">ZED2 Camera</text><line x1="960" y1="260" x2="960" y2="310" stroke="#2D3748" stroke-width="3"/><rect x="710" y="310" width="500" height="80" rx="10" fill="#F5F7FA" stroke="#0F4C81" stroke-width="2"/><text x="960" y="360" text-anchor="middle">Image Acquisition</text><line x1="960" y1="390" x2="960" y2="440" stroke="#2D3748" stroke-width="3"/><rect x="710" y="440" width="500" height="80" rx="10" fill="#F5F7FA" stroke="#0F4C81" stroke-width="2"/><text x="960" y="490" text-anchor="middle">YOLO11m-Seg</text><line x1="960" y1="520" x2="960" y2="570" stroke="#2D3748" stroke-width="3"/><rect x="710" y="570" width="500" height="80" rx="10" fill="#F5F7FA" stroke="#0F4C81" stroke-width="2"/><text x="960" y="620" text-anchor="middle">Semantic Segmentation</text><line x1="960" y1="650" x2="960" y2="700" stroke="#2D3748" stroke-width="3"/><rect x="710" y="700" width="500" height="80" rx="10" fill="#F5F7FA" stroke="#0F4C81" stroke-width="2"/><text x="960" y="750" text-anchor="middle">Traversability Mapping</text><line x1="960" y1="780" x2="960" y2="830" stroke="#2D3748" stroke-width="3"/><rect x="710" y="830" width="500" height="80" rx="10" fill="#F5F7FA" stroke="#0F4C81" stroke-width="2"/><text x="960" y="880" text-anchor="middle">Navigation Stack</text></g></svg>